HIERARCHY
ROOT Hips
{
	OFFSET 0.000000 0.000000 0.000000
	CHANNELS 6 Xposition Yposition Zposition Zrotation Yrotation Xrotation 
	JOINT LHipJoint
	{
		OFFSET 0.000000 0.000000 0.000000
		CHANNELS 3 Zrotation Yrotation Xrotation
		JOINT LeftUpLeg
		{
			OFFSET 1.363060 -1.794630 0.839290
			CHANNELS 3 Zrotation Yrotation Xrotation
			JOINT LeftLeg
			{
				OFFSET 2.448110 -6.726130 0.000000
				CHANNELS 3 Zrotation Yrotation Xrotation
				JOINT LeftFoot
				{
					OFFSET 2.562200 -7.039590 0.000000
					CHANNELS 3 Zrotation Yrotation Xrotation
					JOINT LeftToeBase
					{
						OFFSET 0.157640 -0.433110 2.322550
						CHANNELS 3 Zrotation Yrotation Xrotation
						End Site
						{
							OFFSET 0.000000 0.000000 0.000000
						}
					}
				}
			}
		}
	}
	JOINT RHipJoint
	{
		OFFSET 0.000000 0.000000 0.000000
		CHANNELS 3 Zrotation Yrotation Xrotation
		JOINT RightUpLeg
		{
			OFFSET -1.305520 -1.794630 0.839290
			CHANNELS 3 Zrotation Yrotation Xrotation
			JOINT RightLeg
			{
				OFFSET -2.542530 -6.985550 0.000000
				CHANNELS 3 Zrotation Yrotation Xrotation
				JOINT RightFoot
				{
					OFFSET -2.568260 -7.056230 0.000000
					CHANNELS 3 Zrotation Yrotation Xrotation
					JOINT RightToeBase
					{
						OFFSET -0.164730 -0.452590 2.363150
						CHANNELS 3 Zrotation Yrotation Xrotation
						End Site
						{
							OFFSET 0.000000 0.000000 0.000000
						}
					}
				}
			}
		}
	}
}
MOTION
Frames: 16
Frame Time: 0.008333
1.723942 17.244003 1.842358 -37.713713 -77.611252 40.653355 -11.724358 -2.196326 -3.819069 -4.901455 -7.749723 -4.070854 -1.029582 1.056265 16.158448 1.399055 7.765461 -8.282753 -0.127100 -0.000000 -30.257600 5.711781 5.965768 3.745416 -3.259752 -6.769559 -93.247575 3.668267 1.044950 2.145448 0.511852 0.934265 2.598148 -0.818300 -0.000000 -80.212900
1.723730 17.237498 1.840303 -36.591623 -77.414566 39.652877 -11.681054 -2.149743 -3.637746 -5.009014 -7.996697 -4.617775 -1.041892 1.050135 16.652922 1.389493 7.671027 -8.484991 -0.159400 0.000001 -30.151100 5.833196 5.967886 3.728593 -3.938021 -6.846916 -90.607394 3.359528 1.188488 0.472608 0.463147 -0.919371 4.324125 -1.573300 0.000000 -81.615500
1.724186 17.230618 1.840456 -35.931379 -77.281300 39.079691 -11.654180 -2.088471 -3.425295 -5.056661 -8.132280 -5.237327 -1.049402 1.045480 17.220109 1.379437 7.567796 -8.718396 -0.196100 -0.000001 -30.060900 5.948672 5.953376 3.602007 -4.150776 -6.768425 -87.136991 3.081839 1.414839 -2.428519 0.259310 -2.816319 7.730439 -2.318701 -0.000000 -83.057800
1.725643 17.223498 1.842964 -35.729287 -77.204811 38.848523 -11.641784 -2.009226 -3.189273 -5.055602 -8.163567 -5.781445 -1.051998 1.043107 17.778274 1.371017 7.474714 -8.955277 -0.232700 0.000000 -29.988901 6.039483 5.927948 3.299172 -3.625121 -6.633103 -82.936489 2.902819 1.687222 -6.396797 -0.141576 -4.311402 12.803323 -2.879100 0.000000 -84.170800
1.728086 17.216111 1.846717 -35.781067 -77.225209 38.776528 -11.641304 -1.928797 -2.992220 -5.072957 -8.153381 -6.116932 -1.055774 1.043363 18.219580 1.370822 7.441618 -9.164849 -0.265100 -0.000000 -29.917100 6.137331 5.836848 2.931107 -2.636745 -6.447587 -80.005953 2.868931 1.639669 -7.669349 -0.521383 -5.012021 17.332298 -3.144900 0.000000 -84.494300
1.731467 17.208735 1.851305 -36.037783 -77.369239 38.876478 -11.663506 -1.872254 -2.903379 -5.113700 -8.098431 -6.201306 -1.065533 1.048241 18.490343 1.376019 7.453034 -9.332882 -0.291301 -0.000000 -29.862900 6.261072 5.631066 2.656367 -1.827749 -6.058737 -80.457809 2.902069 0.884405 -2.056261 -0.590779 -5.085129 18.681275 -3.236600 -0.000001 -83.613400
1.735067 17.202127 1.856762 -36.629210 -77.531453 39.144704 -11.690080 -1.809613 -2.832309 -5.126511 -7.944066 -6.029843 -1.073041 1.055238 18.618165 1.380340 7.467329 -9.456031 -0.311000 0.000000 -29.839300 6.337632 5.454538 2.242892 -0.963597 -5.671696 -80.458974 2.841548 0.110913 3.468662 -0.640118 -5.029077 20.464081 -3.263201 -0.000000 -81.494499
1.738124 17.197192 1.863363 -37.589021 -77.720401 39.688887 -11.723819 -1.742844 -2.774758 -5.095140 -7.674433 -5.705122 -1.077153 1.061252 18.620344 1.381118 7.466835 -9.532642 -0.323500 0.000000 -29.853900 6.373954 5.301808 1.756612 -0.141008 -5.246891 -79.942914 2.692779 -0.590711 8.536922 -0.682072 -4.886829 22.486221 -3.227301 0.000000 -78.647700
1.739928 17.194578 1.871342 -38.888528 -77.942135 40.551129 -11.766787 -1.671881 -2.722845 -5.018081 -7.298838 -5.326047 -1.077485 1.063110 18.517360 1.377239 7.444195 -9.562667 -0.328600 -0.000000 -29.902600 6.385824 5.158457 1.256240 0.659038 -4.772101 -79.020669 2.498215 -1.181669 13.050011 -0.706786 -4.572420 24.499924 -3.068000 -0.000000 -75.869300
1.739662 17.194603 1.880374 -40.415830 -78.193007 41.672785 -11.816806 -1.594775 -2.665675 -4.912721 -6.851805 -4.963382 -1.074815 1.058004 18.327320 1.369011 7.401216 -9.547283 -0.326500 0.000000 -29.972601 6.392349 5.012638 0.781654 1.462393 -4.268196 -77.850244 2.292496 -1.666761 17.076159 -0.703894 -4.006099 26.310509 -2.729600 0.000000 -73.860900
1.736581 17.197302 1.889574 -42.013020 -78.460058 42.924869 -11.868736 -1.509604 -2.593536 -4.803308 -6.377638 -4.651888 -1.070462 1.044208 18.063162 1.357391 7.343876 -9.487765 -0.317800 -0.000001 -30.054100 6.408479 4.860047 0.351544 2.272763 -3.775749 -76.558582 2.090867 -2.068824 20.744474 -0.670267 -3.156404 27.804437 -2.187800 -0.000000 -73.001200
1.730657 17.202247 1.898095 -43.537081 -78.725787 44.161769 -11.917614 -1.416021 -2.503391 -4.709748 -5.913833 -4.381744 -1.065712 1.021939 17.727434 1.343110 7.276903 -9.383477 -0.302500 -0.000000 -30.149500 6.442149 4.703419 -0.036453 3.083426 -3.342300 -75.206916 1.895513 -2.410280 24.176069 -0.609546 -2.035166 28.939505 -1.450400 -0.000001 -73.385300
1.720871 17.209022 1.904653 -44.769312 -78.966556 45.176427 -11.955780 -1.312330 -2.383787 -4.652735 -5.507632 -4.179529 -1.062659 0.991179 17.353188 1.326187 7.197638 -9.247597 -0.282700 -0.000000 -30.239900 6.500882 4.547213 -0.376657 3.861863 -3.017976 -73.858545 1.704242 -2.708012 27.460629 -0.528919 -0.689683 29.714286 -0.555400 0.000000 -74.769900
1.707230 17.216945 1.908281 -45.556236 -79.166662 45.805328 -11.977530 -1.199266 -2.233902 -4.644383 -5.188948 -4.034394 -1.062998 0.953776 16.959297 1.306907 7.105879 -9.089115 -0.259900 -0.000001 -30.323300 6.587246 4.397369 -0.675951 4.580327 -2.833919 -72.519400 1.513840 -2.970601 30.641028 -0.439374 0.795741 30.151904 0.431800 0.000000 -76.735000
1.690214 17.225259 1.908273 -45.789105 -79.327465 45.907828 -11.972804 -1.078272 -2.062477 -4.710642 -4.985701 -3.875528 -1.068168 0.910973 16.515669 1.288981 7.027468 -8.900470 -0.233200 0.000000 -30.414000 6.704885 4.262118 -0.950717 5.209148 -2.813648 -71.151129 1.321440 -3.200191 33.717161 -0.352250 2.349252 30.333962 1.455100 -0.000000 -79.156899
1.669156 17.233536 1.904035 -45.381251 -79.436753 45.420457 -11.941295 -0.950428 -1.862438 -4.845095 -4.907664 -3.763244 -1.079525 0.864185 16.084667 1.270720 6.946298 -8.708017 -0.206100 0.000000 -30.490600 6.852599 4.137724 -1.187255 5.717258 -2.938776 -69.783996 1.128697 -3.398961 36.671101 -0.279164 3.825764 30.289693 2.411700 -0.000000 -81.308200
